<svg width="24" height="25" viewBox="0 0 24 25" fill="none" xmlns="http://www.w3.org/2000/svg">
<path d="M23.1853 12.1836C23.1525 12.1064 22.3584 10.2715 20.5931 8.43262C18.2409 5.98242 15.27 4.6875 12 4.6875C8.72999 4.6875 5.75905 5.98242 3.40687 8.43262C1.64155 10.2715 0.843741 12.1094 0.814679 12.1836C0.772035 12.2835 0.75 12.3916 0.75 12.501C0.75 12.6103 0.772035 12.7184 0.814679 12.8184C0.847491 12.8955 1.64155 14.7295 3.40687 16.5684C5.75905 19.0176 8.72999 20.3125 12 20.3125C15.27 20.3125 18.2409 19.0176 20.5931 16.5684C22.3584 14.7295 23.1525 12.8955 23.1853 12.8184C23.2279 12.7184 23.25 12.6103 23.25 12.501C23.25 12.3916 23.2279 12.2835 23.1853 12.1836ZM12 18.75C9.11437 18.75 6.59343 17.6572 4.50655 15.5029C3.65028 14.6159 2.92179 13.6044 2.34374 12.5C2.92164 11.3954 3.65014 10.384 4.50655 9.49707C6.59343 7.34277 9.11437 6.25 12 6.25C14.8856 6.25 17.4066 7.34277 19.4934 9.49707C20.3514 10.3837 21.0815 11.3952 21.6609 12.5C20.985 13.8145 18.0403 18.75 12 18.75ZM12 7.8125C11.11 7.8125 10.2399 8.08742 9.49993 8.60249C8.7599 9.11756 8.18313 9.84964 7.84253 10.7062C7.50194 11.5627 7.41282 12.5052 7.58646 13.4145C7.76009 14.3238 8.18867 15.159 8.81801 15.8146C9.44735 16.4701 10.2492 16.9166 11.1221 17.0974C11.995 17.2783 12.8998 17.1855 13.7221 16.8307C14.5443 16.4759 15.2471 15.8751 15.7416 15.1042C16.2361 14.3334 16.5 13.4271 16.5 12.5C16.4988 11.2572 16.0242 10.0657 15.1806 9.18686C14.337 8.30807 13.1931 7.81379 12 7.8125ZM12 15.625C11.4066 15.625 10.8266 15.4417 10.3333 15.0983C9.83993 14.755 9.45542 14.2669 9.22835 13.6959C9.00129 13.1249 8.94188 12.4965 9.05764 11.8903C9.17339 11.2842 9.45911 10.7273 9.87867 10.2903C10.2982 9.85325 10.8328 9.55562 11.4147 9.43505C11.9967 9.31447 12.5999 9.37635 13.148 9.61288C13.6962 9.8494 14.1648 10.2499 14.4944 10.7638C14.824 11.2777 15 11.8819 15 12.5C15 13.3288 14.6839 14.1237 14.1213 14.7097C13.5587 15.2958 12.7956 15.625 12 15.625Z" fill="#625D5D"/>
</svg>
