<svg width="32" height="28" viewBox="0 0 32 28" fill="none" xmlns="http://www.w3.org/2000/svg">
<path d="M21.333 12.8335C23.5463 12.8335 25.3197 11.2702 25.3197 9.3335C25.3197 7.39683 23.5463 5.8335 21.333 5.8335C19.1197 5.8335 17.333 7.39683 17.333 9.3335C17.333 11.2702 19.1197 12.8335 21.333 12.8335ZM10.6663 12.8335C12.8797 12.8335 14.653 11.2702 14.653 9.3335C14.653 7.39683 12.8797 5.8335 10.6663 5.8335C8.45301 5.8335 6.66634 7.39683 6.66634 9.3335C6.66634 11.2702 8.45301 12.8335 10.6663 12.8335ZM10.6663 15.1668C7.55967 15.1668 1.33301 16.5318 1.33301 19.2502V22.1668H19.9997V19.2502C19.9997 16.5318 13.773 15.1668 10.6663 15.1668ZM21.333 15.1668C20.9463 15.1668 20.5063 15.1902 20.0397 15.2252C21.5863 16.2052 22.6663 17.5235 22.6663 19.2502V22.1668H30.6663V19.2502C30.6663 16.5318 24.4397 15.1668 21.333 15.1668Z" fill="#0FA958"/>
</svg>
