<svg width="32" height="28" viewBox="0 0 32 28" fill="none" xmlns="http://www.w3.org/2000/svg">
<path d="M20.6667 23.2457L15 18.2873L16.8667 16.654L20.6667 19.979L28.2 13.3873L30.0667 15.0207L20.6667 23.2457ZM28 11.6665H25.3333V5.83317H22.6667V9.33317H9.33334V5.83317H6.66667V22.1665H14.6667V24.4998H6.66667C5.93334 24.4998 5.30534 24.2712 4.78267 23.8138C4.26 23.3565 3.99911 22.8074 4 22.1665V5.83317C4 5.19151 4.26134 4.64201 4.784 4.18467C5.30667 3.72734 5.93422 3.49906 6.66667 3.49984H12.2333C12.4778 2.81928 12.9556 2.26006 13.6667 1.82217C14.3778 1.38428 15.1556 1.16573 16 1.16651C16.8889 1.16651 17.6836 1.38545 18.384 1.82334C19.0844 2.26123 19.5564 2.82006 19.8 3.49984H25.3333C26.0667 3.49984 26.6947 3.72851 27.2173 4.18584C27.74 4.64317 28.0009 5.19228 28 5.83317V11.6665ZM16 5.83317C16.3778 5.83317 16.6947 5.72117 16.9507 5.49717C17.2067 5.27317 17.3342 4.99628 17.3333 4.66651C17.3333 4.33595 17.2053 4.05867 16.9493 3.83467C16.6933 3.61067 16.3769 3.49906 16 3.49984C15.6222 3.49984 15.3053 3.61184 15.0493 3.83584C14.7933 4.05984 14.6658 4.33673 14.6667 4.66651C14.6667 4.99706 14.7947 5.27434 15.0507 5.49834C15.3067 5.72234 15.6231 5.83395 16 5.83317Z" fill="#0FA958"/>
</svg>
